<svg width="424" height="361" viewBox="0 0 424 361" fill="none" xmlns="http://www.w3.org/2000/svg">
<path d="M212 5L264.5 77M212 5L154.5 108.5M212 5L122 55M212 5L302 55M264.5 77L302 55M264.5 77L244 152.5M264.5 77L154.5 108.5M302 55V158.587M154.5 108.5L244 152.5M154.5 108.5L212 208.5M154.5 108.5L122 158.5M154.5 108.5L122 55M244 152.5L302 158.587M244 152.5L212 208.5M302 158.587L212 208.5M212 208.5L122 158.5M122 158.5V55" stroke="white" stroke-width="6"/>
<path d="M4.18 341.89V305.48C6.27 304.985 9.625 304.655 12.925 304.655C17.71 304.655 20.79 305.48 23.045 307.35C24.97 308.78 26.18 310.98 26.18 313.895C26.18 317.525 23.76 320.66 19.91 322.035V322.2C23.43 323.025 27.555 325.94 27.555 331.44C27.555 334.63 26.29 337.105 24.365 338.865C21.835 341.23 17.655 342.33 11.605 342.33C8.305 342.33 5.775 342.11 4.18 341.89ZM8.965 308.67V320.66H13.31C18.315 320.66 21.285 317.965 21.285 314.39C21.285 310.1 18.04 308.34 13.2 308.34C11 308.34 9.735 308.505 8.965 308.67ZM8.965 324.235V338.37C9.955 338.535 11.275 338.59 12.98 338.59C17.93 338.59 22.495 336.775 22.495 331.385C22.495 326.38 18.15 324.235 12.925 324.235H8.965ZM60.4996 304.27C70.6746 304.27 77.2196 312.025 77.2196 323.08C77.2196 335.785 69.4646 342.605 60.0046 342.605C50.1596 342.605 43.3396 334.96 43.3396 323.74C43.3396 311.97 50.5996 304.27 60.4996 304.27ZM60.3346 308.175C52.3596 308.175 48.3996 315.545 48.3996 323.63C48.3996 331.605 52.6896 338.7 60.2796 338.7C67.8696 338.7 72.1596 331.715 72.1596 323.3C72.1596 315.875 68.3096 308.175 60.3346 308.175ZM94.9545 304.93H99.7945V326.93C99.7945 335.18 103.479 338.7 108.429 338.7C113.874 338.7 117.449 335.07 117.449 326.93V304.93H122.289V326.6C122.289 337.985 116.294 342.605 108.264 342.605C100.674 342.605 94.9545 338.315 94.9545 326.765V304.93ZM142.115 342V304.93H146.955V337.985H162.795V342H142.115ZM179.662 341.89V305.48C182.577 304.985 186.042 304.655 189.837 304.655C196.712 304.655 201.607 306.305 204.852 309.275C208.207 312.3 210.132 316.59 210.132 322.585C210.132 328.635 208.207 333.585 204.797 336.995C201.277 340.46 195.557 342.33 188.352 342.33C184.887 342.33 182.082 342.165 179.662 341.89ZM184.447 308.945V338.26C185.657 338.425 187.417 338.48 189.287 338.48C199.572 338.48 205.072 332.76 205.072 322.75C205.127 314.005 200.177 308.45 190.057 308.45C187.582 308.45 185.712 308.67 184.447 308.945ZM246.983 320.66V324.62H232.628V337.985H248.688V342H227.788V304.93H247.863V308.945H232.628V320.66H246.983ZM266.463 342V305.425C268.883 304.985 272.403 304.655 275.648 304.655C280.763 304.655 284.118 305.645 286.373 307.68C288.188 309.33 289.288 311.86 289.288 314.775C289.288 319.615 286.208 322.86 282.358 324.18V324.345C285.163 325.335 286.868 327.975 287.748 331.825C288.958 336.995 289.838 340.57 290.608 342H285.658C285.053 340.9 284.228 337.765 283.238 333.145C282.138 328.03 280.103 326.105 275.758 325.94H271.248V342H266.463ZM271.248 308.78V322.31H276.143C281.258 322.31 284.503 319.505 284.503 315.27C284.503 310.485 281.038 308.395 275.978 308.395C273.668 308.395 272.073 308.56 271.248 308.78ZM305.738 340.185L307.003 336.17C309.148 337.545 312.228 338.59 315.528 338.59C320.423 338.59 323.283 336.005 323.283 332.265C323.283 328.855 321.303 326.82 316.298 324.95C310.248 322.75 306.508 319.56 306.508 314.39C306.508 308.615 311.293 304.325 318.498 304.325C322.238 304.325 325.043 305.205 326.638 306.14L325.318 310.045C324.163 309.33 321.688 308.285 318.333 308.285C313.273 308.285 311.348 311.31 311.348 313.84C311.348 317.305 313.603 319.01 318.718 320.99C324.988 323.41 328.123 326.435 328.123 331.88C328.123 337.6 323.943 342.605 315.198 342.605C311.623 342.605 307.718 341.505 305.738 340.185ZM361.242 304.27C371.417 304.27 377.962 312.025 377.962 323.08C377.962 335.785 370.207 342.605 360.747 342.605C350.902 342.605 344.082 334.96 344.082 323.74C344.082 311.97 351.342 304.27 361.242 304.27ZM361.077 308.175C353.102 308.175 349.142 315.545 349.142 323.63C349.142 331.605 353.432 338.7 361.022 338.7C368.612 338.7 372.902 331.715 372.902 323.3C372.902 315.875 369.052 308.175 361.077 308.175ZM420.667 336.995L421.602 340.845C419.897 341.725 416.322 342.605 411.812 342.605C401.362 342.605 393.552 336.005 393.552 323.795C393.552 312.135 401.417 304.325 412.912 304.325C417.477 304.325 420.447 305.315 421.712 305.975L420.502 309.88C418.742 309 416.157 308.34 413.077 308.34C404.387 308.34 398.612 313.895 398.612 323.63C398.612 332.76 403.837 338.535 412.802 338.535C415.772 338.535 418.742 337.93 420.667 336.995Z" fill="white"/>
<path d="M156.772 242.692H163.156V258.946C163.156 263.86 165.046 266.338 168.28 266.338C171.64 266.338 173.488 263.986 173.488 258.946V242.692H179.872V258.568C179.872 267.304 175.462 271.462 168.07 271.462C160.93 271.462 156.772 267.472 156.772 258.484V242.692ZM187.669 269.656L188.971 264.406C190.651 265.288 193.339 266.17 196.069 266.17C199.009 266.17 200.563 264.952 200.563 263.104C200.563 261.34 199.219 260.332 195.817 259.156C191.113 257.476 188.005 254.872 188.005 250.756C188.005 245.926 192.079 242.272 198.715 242.272C201.949 242.272 204.259 242.902 205.939 243.7L204.511 248.824C203.419 248.278 201.361 247.48 198.631 247.48C195.859 247.48 194.515 248.782 194.515 250.21C194.515 252.016 196.069 252.814 199.765 254.2C204.763 256.048 207.073 258.652 207.073 262.642C207.073 267.388 203.461 271.42 195.691 271.42C192.457 271.42 189.265 270.538 187.669 269.656ZM227.739 271H221.355V259.408L212.409 242.692H219.759L222.615 249.496C223.497 251.554 224.127 253.066 224.799 254.914H224.883C225.513 253.15 226.185 251.512 227.025 249.496L229.881 242.692H237.063L227.739 259.198V271ZM242.731 270.874V243.112C245.083 242.734 248.149 242.482 251.341 242.482C256.759 242.482 260.287 243.49 262.975 245.506C265.915 247.69 267.763 251.176 267.763 256.174C267.763 261.592 265.789 265.33 263.101 267.64C260.119 270.118 255.541 271.294 249.997 271.294C246.679 271.294 244.285 271.084 242.731 270.874ZM249.115 247.648V266.17C249.661 266.296 250.585 266.296 251.341 266.296C257.179 266.338 261.001 263.146 261.001 256.384C261.001 250.504 257.557 247.396 252.013 247.396C250.627 247.396 249.661 247.522 249.115 247.648Z" fill="white"/>
<line x1="2" y1="258.5" x2="129" y2="258.5" stroke="white" stroke-width="3"/>
<line x1="295" y1="258.5" x2="422" y2="258.5" stroke="white" stroke-width="3"/>
<path d="M122 158.5V55L212 5L302 55V158.5L212 208.5L122 158.5Z" stroke="white" stroke-width="8"/>
</svg>
