<svg width="1880" height="562" viewBox="0 0 1880 562" fill="none" xmlns="http://www.w3.org/2000/svg">
<g clip-path="url(#clip0_304_438)">
<path d="M-4.42334 -18.0845H1885.21V587.802H-4.42334V-18.0845Z" fill="#99BA61"/>
<path d="M-123.177 250.941C-125.002 241.938 -123.31 232.609 -118.422 224.714L18.9979 2.75653C25.2921 -7.40964 36.2315 -14.1603 48.532 -15.4686L256.835 -37.6249C271.194 -39.1522 285.275 -33.054 293.522 -21.7376L429.084 164.291C434.992 172.398 437.315 182.399 435.552 192.128L387.144 459.127C385.38 468.856 379.671 477.531 371.252 483.274L178.069 615.063C166.318 623.08 150.907 624.312 137.92 618.273L-50.4822 530.663C-61.6076 525.49 -69.5348 515.626 -71.8842 504.034L-123.177 250.941Z" fill="#B1CC7D"/>
<path d="M743.555 547.118C743.555 613.143 567.889 666.667 351.194 666.667C134.5 666.667 -41.1661 613.143 -41.1661 547.118C-41.1661 481.092 134.5 427.568 351.194 427.568C567.889 427.568 743.555 481.092 743.555 547.118Z" fill="#B6D87A"/>
<path d="M149.813 196.215C159.863 226.992 126.013 254.066 95.9989 239.258L-111.423 136.923C-135.557 125.016 -139.212 93.5118 -118.391 76.8583L19.5812 -33.4965C40.4024 -50.1499 72.2833 -41.2216 80.3641 -16.4741L149.813 196.215Z" fill="#66842C"/>
<path d="M1045.5 107.61C864.539 155.811 777.551 53.813 756.677 -3.21102L1901.08 -14.0236C1815.24 63.0117 1467.4 427.824 1413.01 233.699C1358.63 39.575 1271.71 47.3589 1045.5 107.61Z" fill="#B6D87A"/>
<path d="M1590.77 413.674C1596.59 408.952 1603.71 405.946 1611.29 405.02L1832.52 377.997C1844.81 376.495 1857.13 380.606 1865.77 389.092L1952.88 474.714C1964.86 486.486 1967.44 504.31 1959.26 518.739L1877.87 662.277C1873.72 669.595 1867.14 675.392 1859.16 678.757L1636.19 772.793C1628.22 776.157 1619.29 776.899 1610.83 774.902L1444.76 735.732C1428.07 731.794 1415.98 717.977 1414.92 701.604L1407.16 582.513C1406.39 570.71 1411.49 559.251 1420.93 551.586L1590.77 413.674Z" fill="#678430"/>
</g>
<defs>
<clipPath id="clip0_304_438">
<rect width="1880" height="562" fill="white"/>
</clipPath>
</defs>
</svg>
