<svg width="554" height="187" viewBox="0 0 554 187" fill="none" xmlns="http://www.w3.org/2000/svg">
<path d="M514 1.5H1V185.5H528.5L494.5 118L552 56L514 1.5Z" fill="#EEFCE1" stroke="black" stroke-opacity="0.4" stroke-width="2"/>
<g filter="url(#filter0_d_308_445)">
<path d="M64.744 34.616V71H59.08V42.968L48.712 57.608H45.784L35.464 43.016V71H29.8V34.616H36.136L47.272 50.456L58.408 34.616H64.744ZM77.6913 58.568C77.8193 61.16 78.5553 63.224 79.8993 64.76C81.2433 66.296 83.3393 67.064 86.1873 67.064C87.4353 67.064 88.6673 66.904 89.8833 66.584C91.0993 66.232 92.4273 65.72 93.8673 65.048L95.4033 69.464C93.8993 70.296 92.3633 70.888 90.7953 71.24C89.2273 71.624 87.4993 71.816 85.6113 71.816C82.6993 71.816 80.2193 71.224 78.1713 70.04C76.1553 68.856 74.6193 67.192 73.5633 65.048C72.5073 62.904 71.9793 60.424 71.9793 57.608C71.9793 54.632 72.5233 52.088 73.6113 49.976C74.6993 47.864 76.1873 46.264 78.0753 45.176C79.9633 44.088 82.0593 43.544 84.3633 43.544C87.9793 43.544 90.8113 44.648 92.8593 46.856C94.9393 49.032 95.9792 52.216 95.9792 56.408V58.568H77.6913ZM84.3633 48.296C80.8433 48.296 78.6993 50.248 77.9313 54.152H90.2193C90.0593 52.136 89.4993 50.664 88.5393 49.736C87.5793 48.776 86.1873 48.296 84.3633 48.296ZM132.595 43.736C135.891 43.736 138.323 44.616 139.891 46.376C141.491 48.104 142.291 50.952 142.291 54.92V71H136.819V54.92C136.819 52.712 136.435 51.128 135.667 50.168C134.931 49.208 133.603 48.728 131.683 48.728C129.379 48.728 127.059 49.816 124.723 51.992C124.819 52.888 124.867 53.864 124.867 54.92V71H119.395V54.92C119.395 52.712 119.011 51.128 118.243 50.168C117.507 49.208 116.179 48.728 114.259 48.728C112.051 48.728 109.779 49.736 107.443 51.752V71H101.971V44.312H107.443V46.952C109.875 44.808 112.451 43.736 115.171 43.736C117.283 43.736 119.027 44.088 120.403 44.792C121.811 45.496 122.883 46.6 123.619 48.104C126.531 45.192 129.523 43.736 132.595 43.736ZM162.699 43.544C166.315 43.544 169.211 44.76 171.387 47.192C173.563 49.592 174.651 53.08 174.651 57.656C174.651 62.264 173.563 65.784 171.387 68.216C169.211 70.616 166.315 71.816 162.699 71.816C160.107 71.816 157.579 70.792 155.115 68.744V71H149.643V30.392H155.115V46.616C157.579 44.568 160.107 43.544 162.699 43.544ZM161.787 66.824C164.155 66.824 165.947 66.056 167.163 64.52C168.379 62.952 168.987 60.664 168.987 57.656C168.987 54.68 168.379 52.424 167.163 50.888C165.947 49.32 164.155 48.536 161.787 48.536C159.579 48.536 157.355 49.432 155.115 51.224V64.136C157.355 65.928 159.579 66.824 161.787 66.824ZM185.269 58.568C185.397 61.16 186.133 63.224 187.477 64.76C188.821 66.296 190.917 67.064 193.765 67.064C195.013 67.064 196.245 66.904 197.461 66.584C198.677 66.232 200.005 65.72 201.445 65.048L202.981 69.464C201.477 70.296 199.941 70.888 198.373 71.24C196.805 71.624 195.077 71.816 193.189 71.816C190.277 71.816 187.797 71.224 185.749 70.04C183.733 68.856 182.197 67.192 181.141 65.048C180.085 62.904 179.557 60.424 179.557 57.608C179.557 54.632 180.101 52.088 181.189 49.976C182.277 47.864 183.765 46.264 185.653 45.176C187.541 44.088 189.637 43.544 191.941 43.544C195.557 43.544 198.389 44.648 200.437 46.856C202.517 49.032 203.557 52.216 203.557 56.408V58.568H185.269ZM191.941 48.296C188.421 48.296 186.277 50.248 185.509 54.152H197.797C197.637 52.136 197.077 50.664 196.117 49.736C195.157 48.776 193.765 48.296 191.941 48.296ZM223.997 43.736V48.728H222.893C220.269 48.728 217.645 49.768 215.021 51.848V71H209.549V44.312H215.021V47.144C217.549 44.872 220.173 43.736 222.893 43.736H223.997ZM238.158 71.816C236.142 71.816 234.35 71.64 232.782 71.288C231.246 70.968 229.614 70.408 227.886 69.608V64.424C230.958 66.184 234.382 67.064 238.158 67.064C239.758 67.064 240.91 66.76 241.614 66.152C242.35 65.512 242.718 64.664 242.718 63.608C242.718 62.648 242.446 61.928 241.902 61.448C241.358 60.968 240.478 60.568 239.262 60.248L235.758 59.432C233.39 58.888 231.566 58.008 230.286 56.792C229.038 55.576 228.414 53.816 228.414 51.512C228.414 48.952 229.23 46.984 230.862 45.608C232.526 44.232 234.99 43.544 238.254 43.544C241.134 43.544 244.062 44.12 247.038 45.272V50.216C244.35 48.936 241.486 48.296 238.446 48.296C236.846 48.296 235.694 48.584 234.99 49.16C234.318 49.704 233.982 50.408 233.982 51.272C233.982 52.2 234.254 52.888 234.798 53.336C235.342 53.784 236.158 54.152 237.246 54.44L240.798 55.256C243.326 55.832 245.198 56.712 246.414 57.896C247.662 59.048 248.286 60.888 248.286 63.416C248.286 66.136 247.358 68.216 245.502 69.656C243.678 71.096 241.23 71.816 238.158 71.816ZM268.27 43.736C271.63 43.736 274.126 44.616 275.758 46.376C277.39 48.104 278.206 50.952 278.206 54.92V71H272.734V54.92C272.734 52.712 272.334 51.128 271.534 50.168C270.734 49.208 269.342 48.728 267.358 48.728C264.99 48.728 262.638 49.736 260.302 51.752V71H254.83V30.392H260.302V46.952C262.83 44.808 265.486 43.736 268.27 43.736ZM286.143 32.216H291.615V39.464H286.143V32.216ZM286.143 44.312H291.615V71H286.143V44.312ZM312.839 43.544C316.455 43.544 319.351 44.76 321.527 47.192C323.703 49.592 324.791 53.08 324.791 57.656C324.791 62.264 323.703 65.784 321.527 68.216C319.351 70.616 316.455 71.816 312.839 71.816C310.247 71.816 307.719 70.792 305.255 68.744V82.232H299.783V44.312H305.255V46.616C307.719 44.568 310.247 43.544 312.839 43.544ZM311.927 66.824C314.295 66.824 316.087 66.056 317.303 64.52C318.519 62.952 319.127 60.664 319.127 57.656C319.127 54.68 318.519 52.424 317.303 50.888C316.087 49.32 314.295 48.536 311.927 48.536C309.719 48.536 307.495 49.432 305.255 51.224V64.136C307.495 65.928 309.719 66.824 311.927 66.824ZM49.864 124.52C51.976 125.192 53.592 126.264 54.712 127.736C55.832 129.176 56.392 130.952 56.392 133.064C56.392 136.424 55.368 138.92 53.32 140.552C51.272 142.184 47.848 143 43.048 143H29.8V106.616H43.048C47.4 106.616 50.472 107.432 52.264 109.064C54.056 110.664 54.952 113.096 54.952 116.36C54.952 118.312 54.536 119.976 53.704 121.352C52.904 122.696 51.624 123.752 49.864 124.52ZM35.464 122.408H43.048C47.144 122.408 49.192 120.504 49.192 116.696C49.192 114.744 48.728 113.352 47.8 112.52C46.872 111.688 45.288 111.272 43.048 111.272H35.464V122.408ZM50.632 132.68C50.632 130.728 49.992 129.304 48.712 128.408C47.432 127.512 45.544 127.064 43.048 127.064H35.464V138.344H43.048C45.832 138.344 47.784 137.896 48.904 137C50.056 136.104 50.632 134.664 50.632 132.68ZM67.6131 130.568C67.7411 133.16 68.4771 135.224 69.8211 136.76C71.1651 138.296 73.2611 139.064 76.1091 139.064C77.3571 139.064 78.5891 138.904 79.8051 138.584C81.0211 138.232 82.3491 137.72 83.7891 137.048L85.3251 141.464C83.8211 142.296 82.2851 142.888 80.7171 143.24C79.1491 143.624 77.4211 143.816 75.5331 143.816C72.6211 143.816 70.1411 143.224 68.0931 142.04C66.0771 140.856 64.5411 139.192 63.4851 137.048C62.4291 134.904 61.9011 132.424 61.9011 129.608C61.9011 126.632 62.4451 124.088 63.5331 121.976C64.6211 119.864 66.1091 118.264 67.9971 117.176C69.8851 116.088 71.9811 115.544 74.2851 115.544C77.9011 115.544 80.7331 116.648 82.7811 118.856C84.8611 121.032 85.9011 124.216 85.9011 128.408V130.568H67.6131ZM74.2851 120.296C70.7651 120.296 68.6211 122.248 67.8531 126.152H80.1411C79.9811 124.136 79.4211 122.664 78.4611 121.736C77.5011 120.776 76.1091 120.296 74.2851 120.296ZM105.333 115.736C108.693 115.736 111.189 116.616 112.821 118.376C114.453 120.104 115.269 122.952 115.269 126.92V143H109.797V126.92C109.797 124.712 109.397 123.128 108.597 122.168C107.797 121.208 106.405 120.728 104.421 120.728C102.117 120.728 99.7645 121.736 97.3645 123.752V143H91.8925V116.312H97.3645V119C99.8925 116.824 102.549 115.736 105.333 115.736ZM127.285 130.568C127.413 133.16 128.149 135.224 129.493 136.76C130.837 138.296 132.933 139.064 135.781 139.064C137.029 139.064 138.261 138.904 139.477 138.584C140.693 138.232 142.021 137.72 143.461 137.048L144.997 141.464C143.493 142.296 141.957 142.888 140.389 143.24C138.821 143.624 137.093 143.816 135.205 143.816C132.293 143.816 129.813 143.224 127.765 142.04C125.749 140.856 124.213 139.192 123.157 137.048C122.101 134.904 121.573 132.424 121.573 129.608C121.573 126.632 122.117 124.088 123.205 121.976C124.293 119.864 125.781 118.264 127.669 117.176C129.557 116.088 131.653 115.544 133.957 115.544C137.573 115.544 140.405 116.648 142.453 118.856C144.533 121.032 145.573 124.216 145.573 128.408V130.568H127.285ZM133.957 120.296C130.437 120.296 128.293 122.248 127.525 126.152H139.813C139.653 124.136 139.093 122.664 138.133 121.736C137.173 120.776 135.781 120.296 133.957 120.296ZM160.684 106.76C159.628 106.76 158.908 106.984 158.524 107.432C158.14 107.88 157.948 108.712 157.948 109.928V116.312H163.228V121.304H157.948V143H152.476V121.304H149.212V116.312H152.476V108.296C152.476 106.024 153.036 104.376 154.156 103.352C155.308 102.296 157.132 101.768 159.628 101.768C160.748 101.768 161.948 101.912 163.228 102.2V107.048C162.46 106.856 161.612 106.76 160.684 106.76ZM168.486 104.216H173.958V111.464H168.486V104.216ZM168.486 116.312H173.958V143H168.486V116.312ZM188.751 121.784V135.416C188.751 136.632 188.943 137.48 189.327 137.96C189.711 138.408 190.431 138.632 191.487 138.632C192.479 138.632 193.487 138.504 194.511 138.248V143.096C193.007 143.448 191.615 143.624 190.335 143.624C187.775 143.624 185.951 143.096 184.863 142.04C183.807 140.984 183.279 139.288 183.279 136.952V121.784H179.775V116.792H183.279V107.672H188.751V116.792H194.895V121.784H188.751ZM209.47 143.816C207.454 143.816 205.662 143.64 204.094 143.288C202.558 142.968 200.926 142.408 199.198 141.608V136.424C202.27 138.184 205.694 139.064 209.47 139.064C211.07 139.064 212.222 138.76 212.926 138.152C213.662 137.512 214.03 136.664 214.03 135.608C214.03 134.648 213.758 133.928 213.214 133.448C212.67 132.968 211.79 132.568 210.574 132.248L207.07 131.432C204.702 130.888 202.878 130.008 201.598 128.792C200.35 127.576 199.726 125.816 199.726 123.512C199.726 120.952 200.542 118.984 202.174 117.608C203.838 116.232 206.302 115.544 209.566 115.544C212.446 115.544 215.374 116.12 218.35 117.272V122.216C215.662 120.936 212.798 120.296 209.758 120.296C208.158 120.296 207.006 120.584 206.302 121.16C205.63 121.704 205.294 122.408 205.294 123.272C205.294 124.2 205.566 124.888 206.11 125.336C206.654 125.784 207.47 126.152 208.558 126.44L212.11 127.256C214.638 127.832 216.51 128.712 217.726 129.896C218.974 131.048 219.598 132.888 219.598 135.416C219.598 138.136 218.67 140.216 216.814 141.656C214.99 143.096 212.542 143.816 209.47 143.816Z" fill="#3E4E26"/>
</g>
<defs>
<filter id="filter0_d_308_445" x="29.8" y="30.392" width="296.491" height="114.924" filterUnits="userSpaceOnUse" color-interpolation-filters="sRGB">
<feFlood flood-opacity="0" result="BackgroundImageFix"/>
<feColorMatrix in="SourceAlpha" type="matrix" values="0 0 0 0 0 0 0 0 0 0 0 0 0 0 0 0 0 0 127 0" result="hardAlpha"/>
<feOffset dx="1.5" dy="1.5"/>
<feComposite in2="hardAlpha" operator="out"/>
<feColorMatrix type="matrix" values="0 0 0 0 0.243137 0 0 0 0 0.305882 0 0 0 0 0.14902 0 0 0 0.35 0"/>
<feBlend mode="normal" in2="BackgroundImageFix" result="effect1_dropShadow_308_445"/>
<feBlend mode="normal" in="SourceGraphic" in2="effect1_dropShadow_308_445" result="shape"/>
</filter>
</defs>
</svg>
